<mxfile host="65bd71144e">
    <diagram id="rdRtwRyQDOsYaVcUdxkl" name="Page-1">
        <mxGraphModel dx="1038" dy="740" grid="1" gridSize="10" guides="1" tooltips="1" connect="1" arrows="1" fold="1" page="1" pageScale="1" pageWidth="827" pageHeight="1169" math="0" shadow="0">
            <root>
                <mxCell id="0"/>
                <mxCell id="1" parent="0"/>
                <mxCell id="9" value="Portada per Alumnes" style="strokeWidth=1;shadow=0;dashed=0;align=center;html=1;shape=mxgraph.mockup.containers.window;align=left;verticalAlign=top;spacingLeft=8;strokeColor2=#008cff;strokeColor3=#c4c4c4;mainText=;fontSize=17;labelBackgroundColor=none;" parent="1" vertex="1">
                    <mxGeometry x="20" y="20" width="790" height="1100" as="geometry"/>
                </mxCell>
                <mxCell id="10" value="Navbar" style="html=1;shadow=0;dashed=0;fillColor=#E3F3FD;strokeColor=none;fontSize=16;fontColor=#161819;align=left;spacing=15;" parent="1" vertex="1">
                    <mxGeometry x="20" y="50" width="790" height="60" as="geometry"/>
                </mxCell>
                <mxCell id="11" value="Dashboard" style="fillColor=none;strokeColor=none;fontSize=14;fontColor=#161819;align=center;" parent="10" vertex="1">
                    <mxGeometry width="70" height="40" relative="1" as="geometry">
                        <mxPoint x="80" y="10" as="offset"/>
                    </mxGeometry>
                </mxCell>
                <mxCell id="20" value="" style="verticalLabelPosition=bottom;shadow=0;dashed=0;align=center;html=1;verticalAlign=top;strokeWidth=1;shape=mxgraph.mockup.containers.userMale;strokeColor=#666666;strokeColor2=#008cff;" parent="10" vertex="1">
                    <mxGeometry x="719.1025641025641" width="60.76923076923077" height="60" as="geometry"/>
                </mxCell>
                <mxCell id="22" value="" style="verticalLabelPosition=bottom;shadow=0;dashed=0;align=center;html=1;verticalAlign=top;strokeWidth=1;shape=mxgraph.mockup.graphics.simpleIcon;strokeColor=#999999;" parent="10" vertex="1">
                    <mxGeometry x="10.128205128205128" width="60.76923076923077" height="60" as="geometry"/>
                </mxCell>
                <mxCell id="26" value="Preguntar Dubtes" style="fillColor=none;strokeColor=none;fontSize=14;fontColor=#161819;align=center;" parent="10" vertex="1">
                    <mxGeometry x="151.9230769230769" y="10" width="121.53846153846153" height="40" as="geometry"/>
                </mxCell>
                <mxCell id="27" value="Usuari" style="fillColor=none;strokeColor=none;fontSize=14;fontColor=#161819;align=center;" parent="10" vertex="1">
                    <mxGeometry x="660" y="10" width="59.1" height="40" as="geometry"/>
                </mxCell>
                <mxCell id="28" value="" style="verticalLabelPosition=bottom;shadow=0;dashed=0;align=center;html=1;verticalAlign=top;strokeWidth=1;shape=mxgraph.mockup.graphics.simpleIcon;strokeColor=#999999;" parent="1" vertex="1">
                    <mxGeometry x="20" y="110" width="790" height="260" as="geometry"/>
                </mxCell>
                <mxCell id="29" value="" style="rounded=0;whiteSpace=wrap;html=1;fontSize=30;" vertex="1" parent="1">
                    <mxGeometry x="20" y="880" width="790" height="240" as="geometry"/>
                </mxCell>
                <mxCell id="30" value="" style="verticalLabelPosition=bottom;shadow=0;dashed=0;align=center;html=1;verticalAlign=top;strokeWidth=1;shape=mxgraph.mockup.graphics.simpleIcon;strokeColor=#999999;" vertex="1" parent="1">
                    <mxGeometry x="39" y="900" width="91" height="80" as="geometry"/>
                </mxCell>
                <mxCell id="31" value="Informació:&#10;..." style="fontSize=20;align=center;strokeColor=none;" vertex="1" parent="1">
                    <mxGeometry x="39" y="990" width="111" height="50" as="geometry"/>
                </mxCell>
                <mxCell id="32" value="2DAW · Copyright 2022 · Avís Legal · Política de Privacitat · Política de Cookies" style="fontSize=20;align=center;strokeColor=none;" vertex="1" parent="1">
                    <mxGeometry x="80" y="1060" width="680" height="50" as="geometry"/>
                </mxCell>
                <mxCell id="33" value="" style="endArrow=none;html=1;fontSize=20;exitX=0;exitY=0.75;exitDx=0;exitDy=0;entryX=1;entryY=0.75;entryDx=0;entryDy=0;" edge="1" parent="1" source="29" target="29">
                    <mxGeometry width="50" height="50" relative="1" as="geometry">
                        <mxPoint x="160" y="1050" as="sourcePoint"/>
                        <mxPoint x="210" y="1000" as="targetPoint"/>
                    </mxGeometry>
                </mxCell>
                <mxCell id="34" value="&lt;span style=&quot;font-size: 30px&quot;&gt;Dubtes Sense Resoldre&lt;/span&gt;" style="text;html=1;strokeColor=none;fillColor=none;align=center;verticalAlign=middle;whiteSpace=wrap;rounded=0;" vertex="1" parent="1">
                    <mxGeometry x="231" y="390" width="370" height="30" as="geometry"/>
                </mxCell>
                <mxCell id="35" value="&lt;b&gt;&lt;font style=&quot;font-size: 20px&quot;&gt;Assumpte del Dubte&lt;/font&gt;&lt;/b&gt;&lt;br style=&quot;font-size: 14px&quot;&gt;&lt;br&gt;Explicació del Dubte que es vol Preguntar." style="html=1;shadow=0;dashed=0;shape=mxgraph.bootstrap.rrect;rSize=5;strokeColor=#DFDFDF;html=1;whiteSpace=wrap;fillColor=#FFFFFF;fontColor=#000000;align=left;verticalAlign=top;spacing=20;fontSize=14;" vertex="1" parent="1">
                    <mxGeometry x="40" y="440" width="240" height="170" as="geometry"/>
                </mxCell>
                <mxCell id="36" value="Més Informació" style="html=1;shadow=0;dashed=0;shape=mxgraph.bootstrap.rrect;rSize=5;perimeter=none;whiteSpace=wrap;fillColor=#0085FC;strokeColor=none;fontColor=#ffffff;resizeWidth=1;fontSize=14;" vertex="1" parent="35">
                    <mxGeometry y="1" width="75.78947368421053" height="40" relative="1" as="geometry">
                        <mxPoint x="20" y="-60" as="offset"/>
                    </mxGeometry>
                </mxCell>
                <mxCell id="37" value="&lt;b&gt;&lt;font style=&quot;font-size: 20px&quot;&gt;Assumpte del Dubte&lt;/font&gt;&lt;/b&gt;&lt;br style=&quot;font-size: 14px&quot;&gt;&lt;br&gt;Explicació del Dubte que es vol Preguntar." style="html=1;shadow=0;dashed=0;shape=mxgraph.bootstrap.rrect;rSize=5;strokeColor=#DFDFDF;html=1;whiteSpace=wrap;fillColor=#FFFFFF;fontColor=#000000;align=left;verticalAlign=top;spacing=20;fontSize=14;" vertex="1" parent="1">
                    <mxGeometry x="295" y="440" width="240" height="170" as="geometry"/>
                </mxCell>
                <mxCell id="38" value="Més Informació" style="html=1;shadow=0;dashed=0;shape=mxgraph.bootstrap.rrect;rSize=5;perimeter=none;whiteSpace=wrap;fillColor=#0085FC;strokeColor=none;fontColor=#ffffff;resizeWidth=1;fontSize=14;" vertex="1" parent="37">
                    <mxGeometry y="1" width="75.78947368421053" height="40" relative="1" as="geometry">
                        <mxPoint x="20" y="-60" as="offset"/>
                    </mxGeometry>
                </mxCell>
                <mxCell id="39" value="&lt;b&gt;&lt;font style=&quot;font-size: 20px&quot;&gt;Assumpte del Dubte&lt;/font&gt;&lt;/b&gt;&lt;br style=&quot;font-size: 14px&quot;&gt;&lt;br&gt;Explicació del Dubte que es vol Preguntar." style="html=1;shadow=0;dashed=0;shape=mxgraph.bootstrap.rrect;rSize=5;strokeColor=#DFDFDF;html=1;whiteSpace=wrap;fillColor=#FFFFFF;fontColor=#000000;align=left;verticalAlign=top;spacing=20;fontSize=14;" vertex="1" parent="1">
                    <mxGeometry x="550" y="440" width="240" height="170" as="geometry"/>
                </mxCell>
                <mxCell id="40" value="Més Informació" style="html=1;shadow=0;dashed=0;shape=mxgraph.bootstrap.rrect;rSize=5;perimeter=none;whiteSpace=wrap;fillColor=#0085FC;strokeColor=none;fontColor=#ffffff;resizeWidth=1;fontSize=14;" vertex="1" parent="39">
                    <mxGeometry y="1" width="75.78947368421053" height="40" relative="1" as="geometry">
                        <mxPoint x="20" y="-60" as="offset"/>
                    </mxGeometry>
                </mxCell>
                <mxCell id="41" value="&lt;span style=&quot;font-size: 30px&quot;&gt;Les Meves Assignatures&lt;/span&gt;" style="text;html=1;strokeColor=none;fillColor=none;align=center;verticalAlign=middle;whiteSpace=wrap;rounded=0;" vertex="1" parent="1">
                    <mxGeometry x="231" y="640" width="370" height="30" as="geometry"/>
                </mxCell>
                <mxCell id="42" value="" style="html=1;shadow=0;dashed=0;shape=mxgraph.bootstrap.rrect;rSize=5;strokeColor=#DFDFDF;html=1;whiteSpace=wrap;fillColor=#FFFFFF;fontColor=#000000;fontSize=30;" vertex="1" parent="1">
                    <mxGeometry x="51" y="690" width="730" height="120" as="geometry"/>
                </mxCell>
                <mxCell id="43" value="M1. Exemple 1" style="strokeColor=inherit;fillColor=inherit;gradientColor=inherit;fontColor=inherit;html=1;shadow=0;dashed=0;shape=mxgraph.bootstrap.topButton;rSize=5;perimeter=none;whiteSpace=wrap;resizeWidth=1;align=left;spacing=10;fontSize=30;" vertex="1" parent="42">
                    <mxGeometry width="730" height="30" relative="1" as="geometry"/>
                </mxCell>
                <mxCell id="44" value="M2. Exemple 2" style="strokeColor=inherit;fillColor=inherit;gradientColor=inherit;fontColor=inherit;html=1;shadow=0;dashed=0;perimeter=none;whiteSpace=wrap;resizeWidth=1;align=left;spacing=10;fontSize=30;" vertex="1" parent="42">
                    <mxGeometry width="730" height="30" relative="1" as="geometry">
                        <mxPoint y="30" as="offset"/>
                    </mxGeometry>
                </mxCell>
                <mxCell id="45" value="M3. Exemple 3" style="strokeColor=inherit;fillColor=inherit;gradientColor=inherit;fontColor=inherit;html=1;shadow=0;dashed=0;perimeter=none;whiteSpace=wrap;resizeWidth=1;align=left;spacing=10;fontSize=30;" vertex="1" parent="42">
                    <mxGeometry width="730" height="30" relative="1" as="geometry">
                        <mxPoint y="60" as="offset"/>
                    </mxGeometry>
                </mxCell>
                <mxCell id="46" value="M4. Exemple 4" style="strokeColor=inherit;fillColor=inherit;gradientColor=inherit;fontColor=inherit;html=1;shadow=0;dashed=0;perimeter=none;whiteSpace=wrap;resizeWidth=1;align=left;spacing=10;fontSize=30;" vertex="1" parent="42">
                    <mxGeometry width="730" height="30" relative="1" as="geometry">
                        <mxPoint y="90" as="offset"/>
                    </mxGeometry>
                </mxCell>
            </root>
        </mxGraphModel>
    </diagram>
</mxfile>